#!OML:ASF \\Waltz\H\Terrain\Patient Classification 1\Animal2\Wednesday\Animal2.ASF
:FULLY-SPECIFIED
:DEGREES
219
root -7.11355 17.8765 -10.68 10.6116 61.8662 2.43487
lowerback 3.22606 1.43565 6.76555
upperback -7.18666 2.68674 1.08181
thorax -9.20332 0.926504 -2.93273
lowerneck 1.06304 7.16124 15.6569
upperneck -0.05566 9.92082 -14.9901
head 1.36877 5.00588 -6.89809
rclavicle 1.61016e-014 1.27222e-014
rhumerus -35.3425 -26.272 -39.3824
rradius 47.9204
rwrist 9.47024
rhand -24.8562 12.9266
rfingers 7.12502
rthumb 1.65044 -17.0468
lclavicle 1.61016e-014 1.27222e-014
lhumerus -60.665 24.8993 24.1695
lradius 29.8781
lwrist 7.8702
lhand -28.7518 31.9278
lfingers 7.12502
lthumb -2.11202 61.8971
rfemur 7.2106 -10.292 18.9337
rtibia 18.4222
rfoot -12.9324 -12.5957
rtoes 20.5715
lfemur -25.9141 -5.40051 -18.509
ltibia 29.0553
lfoot -11.9989 -5.89591
ltoes -5.48298
220
root -7.05637 17.8439 -10.6665 10.8097 61.975 2.5736
lowerback 3.3825 1.41937 6.79883
upperback -7.2835 2.6724 0.902089
thorax -9.39651 0.900023 -3.14874
lowerneck 1.0574 7.08836 15.8178
upperneck -0.0598442 9.80627 -14.6362
head 1.33913 4.94561 -6.81861
rclavicle 7.7526e-015 4.77083e-015
rhumerus -35.9543 -26.355 -39.6464
rradius 47.7861
rwrist 9.38125
rhand -25.4379 13.125
rfingers 7.12502
rthumb 1.08861 -16.852
lclavicle 7.7526e-015 4.77083e-015
lhumerus -60.8938 24.8913 24.571
lradius 29.3853
lwrist 7.71177
lhand -28.2118 32.7078
lfingers 7.12502
lthumb -1.59049 62.6816
rfemur 7.38138 -10.3482 18.7988
rtibia 18.4348
rfoot -12.8882 -12.6486
rtoes 19.0424
lfemur -25.9752 -5.31148 -18.6017
ltibia 29.3329
lfoot -12.4392 -6.44182
ltoes -6.00985
221
root -6.99698 17.8054 -10.6537 10.5446 62.1573 2.16684
lowerback 3.49005 1.49561 7.05968
upperback -7.3751 2.81146 0.862266
thorax -9.53998 0.940697 -3.35706
lowerneck 0.914026 6.97375 15.8487
upperneck 0.116126 9.63586 -14.4073
head 1.37659 4.8547 -6.75213
rclavicle -7.85199e-015 -1.90833e-014
rhumerus -36.8037 -26.5569 -39.5954
rradius 47.6045
rwrist 9.16991
rhand -26.1102 13.246
rfingers 7.12502
rthumb 0.439327 -16.7333
lclavicle -7.85199e-015 -1.90833e-014
lhumerus -60.7552 24.603 25.6869
lradius 28.7949
lwrist 8.23027
lhand -27.8588 33.0191
lfingers 7.12502
lthumb -1.24954 62.9952
rfemur 7.59818 -10.3731 18.9844
rtibia 18.3704
rfoot -13.0287 -12.6882
rtoes 17.2425
lfemur -26.1793 -5.0013 -18.4935
ltibia 29.826
lfoot -13.0201 -6.76894
ltoes -7.195
222
root -6.93996 17.7647 -10.6379 10.3182 62.3779 1.83171
lowerback 3.50397 1.50518 7.09113
upperback -7.38209 2.83906 0.962063
thorax -9.55754 0.956282 -3.27171
lowerneck 0.921197 6.87894 15.8298
upperneck 0.0670232 9.50383 -14.4033
head 1.33977 4.78899 -6.75654
rclavicle 5.88403e-014 2.14687e-014
rhumerus -37.3086 -26.4511 -39.6908
rradius 47.3868
rwrist 8.76669
rhand -26.2807 12.8851
rfingers 7.12502
rthumb 0.274675 -17.0944
lclavicle 5.88403e-014 2.14687e-014
lhumerus -60.8418 24.741 26.6622
lradius 28.1047
lwrist 8.66558
lhand -27.7664 32.875
lfingers 7.12502
lthumb -1.1603 62.8516
rfemur 7.90909 -10.2475 19.3083
rtibia 18.2634
rfoot -12.7439 -13.6032
rtoes 11.5633
lfemur -26.4577 -4.74793 -18.446
ltibia 30.4889
lfoot -13.6403 -6.65696
ltoes -9.30653
223
root -6.88142 17.7311 -10.6204 10.6904 62.5669 2.32827
lowerback 3.73955 1.4359 6.83215
upperback -7.40685 2.73733 0.880187
thorax -9.73972 0.9135 -3.21383
lowerneck 0.973292 6.7938 16.1268
upperneck 0.0768208 9.40432 -14.6128
head 1.34381 4.7419 -6.87825
rclavicle -3.33958e-014 7.15625e-015
rhumerus -37.7353 -26.1865 -39.9631
rradius 47.0412
rwrist 8.59811
rhand -26.2368 12.4226
rfingers 7.12502
rthumb 0.317027 -17.5569
lclavicle -3.33958e-014 7.15625e-015
lhumerus -61.135 25.093 27.0893
lradius 27.4469
lwrist 8.85686
lhand -27.2062 33.1733
lfingers 7.12502
lthumb -0.619205 63.1521
rfemur 8.31454 -10.3198 19.0928
rtibia 18.2892
rfoot -12.3283 -14.3531
rtoes 5.53168
lfemur -26.5659 -4.67876 -18.8483
ltibia 31.215
lfoot -14.2173 -6.44196
ltoes -10.9542
224
root -6.81256 17.7045 -10.6059 11.2344 63.1686 3.00875
lowerback 3.92648 1.33673 6.81474
upperback -7.46569 2.60121 0.652932
thorax -9.92225 0.82904 -3.4403
lowerneck 1.15807 6.54316 15.3788
upperneck -0.111181 9.04291 -13.7194
head 1.12304 4.56336 -6.50562
rclavicle -6.64935e-014 4.77083e-015
rhumerus -38.6822 -26.2429 -39.9702
rradius 46.6522
rwrist 8.6269
rhand -26.3736 12.568
rfingers 7.12502
rthumb 0.184921 -17.4117
lclavicle -6.64935e-014 4.77083e-015
lhumerus -60.9124 24.8468 28.1257
lradius 26.9271
lwrist 9.47806
lhand -26.5065 33.3234
lfingers 7.12502
lthumb 0.0565948 63.3031
rfemur 8.59992 -10.8414 18.7076
rtibia 18.6081
rfoot -13.0227 -14.1694
rtoes 5.69083
lfemur -26.6893 -4.84987 -19.2948
ltibia 31.9402
lfoot -14.5712 -7.02431
ltoes -8.43385
